<mxfile host="app.diagrams.net" modified="2021-04-09T12:29:18.010Z" agent="5.0 (Windows NT 10.0; Win64; x64) AppleWebKit/537.36 (KHTML, like Gecko) Chrome/89.0.4389.114 Safari/537.36 Edg/89.0.774.68" etag="yVN2c4IXw8WZnUWVzLvS" version="14.5.8" type="github">
  <diagram id="NuhaV_3W9dPpnOdYNNlX" name="Page-1">
    <mxGraphModel dx="1038" dy="580" grid="1" gridSize="10" guides="1" tooltips="1" connect="1" arrows="1" fold="1" page="1" pageScale="1" pageWidth="827" pageHeight="1169" math="0" shadow="0">
      <root>
        <mxCell id="0" />
        <mxCell id="1" parent="0" />
        <mxCell id="Z9LKO_j8O5hAG4gf7Dcm-1" value="&lt;font style=&quot;font-size: 14px&quot;&gt;教师端&lt;/font&gt;" style="rounded=0;whiteSpace=wrap;html=1;" parent="1" vertex="1">
          <mxGeometry x="310" y="120" width="120" height="40" as="geometry" />
        </mxCell>
        <mxCell id="Z9LKO_j8O5hAG4gf7Dcm-6" value="&lt;font style=&quot;font-size: 14px&quot;&gt;用户模块&lt;/font&gt;" style="rounded=0;whiteSpace=wrap;html=1;" parent="1" vertex="1">
          <mxGeometry x="240" y="200" width="30" height="120" as="geometry" />
        </mxCell>
        <mxCell id="Z9LKO_j8O5hAG4gf7Dcm-7" value="&lt;font style=&quot;font-size: 14px&quot;&gt;卷题模块&lt;/font&gt;" style="rounded=0;whiteSpace=wrap;html=1;" parent="1" vertex="1">
          <mxGeometry x="290" y="200" width="30" height="120" as="geometry" />
        </mxCell>
        <mxCell id="Z9LKO_j8O5hAG4gf7Dcm-8" value="&lt;font style=&quot;font-size: 14px&quot;&gt;任务模块&lt;/font&gt;" style="rounded=0;whiteSpace=wrap;html=1;" parent="1" vertex="1">
          <mxGeometry x="340" y="200" width="30" height="120" as="geometry" />
        </mxCell>
        <mxCell id="Z9LKO_j8O5hAG4gf7Dcm-9" value="&lt;font style=&quot;font-size: 14px&quot;&gt;教育模块&lt;/font&gt;" style="rounded=0;whiteSpace=wrap;html=1;" parent="1" vertex="1">
          <mxGeometry x="390" y="200" width="30" height="120" as="geometry" />
        </mxCell>
        <mxCell id="Z9LKO_j8O5hAG4gf7Dcm-10" value="&lt;font style=&quot;font-size: 14px&quot;&gt;消息模块&lt;/font&gt;" style="rounded=0;whiteSpace=wrap;html=1;" parent="1" vertex="1">
          <mxGeometry x="440" y="200" width="30" height="120" as="geometry" />
        </mxCell>
        <mxCell id="Z9LKO_j8O5hAG4gf7Dcm-12" value="&lt;font style=&quot;font-size: 14px&quot;&gt;日志模块&lt;/font&gt;" style="rounded=0;whiteSpace=wrap;html=1;" parent="1" vertex="1">
          <mxGeometry x="490" y="200" width="30" height="120" as="geometry" />
        </mxCell>
        <mxCell id="Z9LKO_j8O5hAG4gf7Dcm-13" value="" style="endArrow=none;html=1;entryX=0.5;entryY=1;entryDx=0;entryDy=0;exitX=0.5;exitY=0;exitDx=0;exitDy=0;" parent="1" source="Z9LKO_j8O5hAG4gf7Dcm-6" target="Z9LKO_j8O5hAG4gf7Dcm-1" edge="1">
          <mxGeometry width="50" height="50" relative="1" as="geometry">
            <mxPoint x="390" y="300" as="sourcePoint" />
            <mxPoint x="440" y="250" as="targetPoint" />
          </mxGeometry>
        </mxCell>
        <mxCell id="Z9LKO_j8O5hAG4gf7Dcm-17" value="" style="endArrow=none;html=1;exitX=0.5;exitY=0;exitDx=0;exitDy=0;" parent="1" source="Z9LKO_j8O5hAG4gf7Dcm-9" edge="1">
          <mxGeometry width="50" height="50" relative="1" as="geometry">
            <mxPoint x="320" y="210" as="sourcePoint" />
            <mxPoint x="370" y="160" as="targetPoint" />
          </mxGeometry>
        </mxCell>
        <mxCell id="Z9LKO_j8O5hAG4gf7Dcm-18" value="" style="endArrow=none;html=1;exitX=0.5;exitY=0;exitDx=0;exitDy=0;" parent="1" source="Z9LKO_j8O5hAG4gf7Dcm-8" edge="1">
          <mxGeometry width="50" height="50" relative="1" as="geometry">
            <mxPoint x="320" y="210" as="sourcePoint" />
            <mxPoint x="370" y="160" as="targetPoint" />
          </mxGeometry>
        </mxCell>
        <mxCell id="Z9LKO_j8O5hAG4gf7Dcm-19" value="" style="endArrow=none;html=1;entryX=0.5;entryY=1;entryDx=0;entryDy=0;exitX=0.5;exitY=0;exitDx=0;exitDy=0;" parent="1" source="Z9LKO_j8O5hAG4gf7Dcm-7" target="Z9LKO_j8O5hAG4gf7Dcm-1" edge="1">
          <mxGeometry width="50" height="50" relative="1" as="geometry">
            <mxPoint x="390" y="300" as="sourcePoint" />
            <mxPoint x="440" y="250" as="targetPoint" />
          </mxGeometry>
        </mxCell>
        <mxCell id="Z9LKO_j8O5hAG4gf7Dcm-20" value="" style="endArrow=none;html=1;exitX=0.5;exitY=0;exitDx=0;exitDy=0;" parent="1" source="Z9LKO_j8O5hAG4gf7Dcm-12" edge="1">
          <mxGeometry width="50" height="50" relative="1" as="geometry">
            <mxPoint x="380" y="280" as="sourcePoint" />
            <mxPoint x="370" y="160" as="targetPoint" />
          </mxGeometry>
        </mxCell>
        <mxCell id="Z9LKO_j8O5hAG4gf7Dcm-21" value="" style="endArrow=none;html=1;entryX=0.5;entryY=1;entryDx=0;entryDy=0;exitX=0.5;exitY=0;exitDx=0;exitDy=0;" parent="1" source="Z9LKO_j8O5hAG4gf7Dcm-10" target="Z9LKO_j8O5hAG4gf7Dcm-1" edge="1">
          <mxGeometry width="50" height="50" relative="1" as="geometry">
            <mxPoint x="390" y="300" as="sourcePoint" />
            <mxPoint x="440" y="250" as="targetPoint" />
          </mxGeometry>
        </mxCell>
        <mxCell id="Z9LKO_j8O5hAG4gf7Dcm-23" value="题目模块" style="rounded=0;whiteSpace=wrap;html=1;" parent="1" vertex="1">
          <mxGeometry x="310" y="350" width="30" height="60" as="geometry" />
        </mxCell>
        <mxCell id="Z9LKO_j8O5hAG4gf7Dcm-24" value="试卷模块" style="rounded=0;whiteSpace=wrap;html=1;" parent="1" vertex="1">
          <mxGeometry x="270" y="350" width="30" height="60" as="geometry" />
        </mxCell>
        <mxCell id="Z9LKO_j8O5hAG4gf7Dcm-25" value="" style="endArrow=none;html=1;exitX=0.5;exitY=0;exitDx=0;exitDy=0;" parent="1" source="Z9LKO_j8O5hAG4gf7Dcm-24" edge="1">
          <mxGeometry width="50" height="50" relative="1" as="geometry">
            <mxPoint x="390" y="300" as="sourcePoint" />
            <mxPoint x="300" y="320" as="targetPoint" />
          </mxGeometry>
        </mxCell>
        <mxCell id="Z9LKO_j8O5hAG4gf7Dcm-26" value="" style="endArrow=none;html=1;exitX=0.5;exitY=0;exitDx=0;exitDy=0;" parent="1" source="Z9LKO_j8O5hAG4gf7Dcm-23" edge="1">
          <mxGeometry width="50" height="50" relative="1" as="geometry">
            <mxPoint x="320" y="340" as="sourcePoint" />
            <mxPoint x="300" y="320" as="targetPoint" />
          </mxGeometry>
        </mxCell>
        <mxCell id="Z9LKO_j8O5hAG4gf7Dcm-27" value="学生端" style="rounded=0;whiteSpace=wrap;html=1;" parent="1" vertex="1">
          <mxGeometry x="560" y="120" width="100" height="40" as="geometry" />
        </mxCell>
        <mxCell id="Z9LKO_j8O5hAG4gf7Dcm-28" value="&lt;font style=&quot;font-size: 14px&quot;&gt;成绩模块&lt;/font&gt;" style="rounded=0;whiteSpace=wrap;html=1;" parent="1" vertex="1">
          <mxGeometry x="595" y="210" width="30" height="90" as="geometry" />
        </mxCell>
        <mxCell id="Z9LKO_j8O5hAG4gf7Dcm-29" value="&lt;font style=&quot;font-size: 14px&quot;&gt;考试模块&lt;/font&gt;" style="rounded=0;whiteSpace=wrap;html=1;" parent="1" vertex="1">
          <mxGeometry x="550" y="210" width="30" height="90" as="geometry" />
        </mxCell>
        <mxCell id="Z9LKO_j8O5hAG4gf7Dcm-30" value="&lt;font style=&quot;font-size: 14px&quot;&gt;错题模块&lt;/font&gt;" style="rounded=0;whiteSpace=wrap;html=1;" parent="1" vertex="1">
          <mxGeometry x="640" y="210" width="30" height="90" as="geometry" />
        </mxCell>
        <mxCell id="Z9LKO_j8O5hAG4gf7Dcm-34" value="" style="endArrow=none;html=1;entryX=0.5;entryY=1;entryDx=0;entryDy=0;exitX=0.5;exitY=0;exitDx=0;exitDy=0;" parent="1" source="Z9LKO_j8O5hAG4gf7Dcm-30" target="Z9LKO_j8O5hAG4gf7Dcm-27" edge="1">
          <mxGeometry width="50" height="50" relative="1" as="geometry">
            <mxPoint x="450" y="320" as="sourcePoint" />
            <mxPoint x="500" y="270" as="targetPoint" />
          </mxGeometry>
        </mxCell>
        <mxCell id="Z9LKO_j8O5hAG4gf7Dcm-35" value="" style="endArrow=none;html=1;entryX=0.5;entryY=1;entryDx=0;entryDy=0;exitX=0.5;exitY=0;exitDx=0;exitDy=0;" parent="1" source="Z9LKO_j8O5hAG4gf7Dcm-28" target="Z9LKO_j8O5hAG4gf7Dcm-27" edge="1">
          <mxGeometry width="50" height="50" relative="1" as="geometry">
            <mxPoint x="610" y="200" as="sourcePoint" />
            <mxPoint x="500" y="270" as="targetPoint" />
          </mxGeometry>
        </mxCell>
        <mxCell id="Z9LKO_j8O5hAG4gf7Dcm-36" value="" style="endArrow=none;html=1;entryX=0.5;entryY=1;entryDx=0;entryDy=0;exitX=0.5;exitY=0;exitDx=0;exitDy=0;" parent="1" source="Z9LKO_j8O5hAG4gf7Dcm-29" target="Z9LKO_j8O5hAG4gf7Dcm-27" edge="1">
          <mxGeometry width="50" height="50" relative="1" as="geometry">
            <mxPoint x="450" y="320" as="sourcePoint" />
            <mxPoint x="500" y="270" as="targetPoint" />
          </mxGeometry>
        </mxCell>
        <mxCell id="yi-cLOBVYIHPT0wldxl9-1" value="&lt;font style=&quot;font-size: 14px&quot;&gt;教师端&lt;/font&gt;" style="rounded=0;whiteSpace=wrap;html=1;" vertex="1" parent="1">
          <mxGeometry x="280" y="630" width="120" height="40" as="geometry" />
        </mxCell>
        <mxCell id="yi-cLOBVYIHPT0wldxl9-2" value="&lt;font style=&quot;font-size: 14px&quot;&gt;用户模块&lt;/font&gt;" style="rounded=0;whiteSpace=wrap;html=1;" vertex="1" parent="1">
          <mxGeometry x="210" y="710" width="30" height="120" as="geometry" />
        </mxCell>
        <mxCell id="yi-cLOBVYIHPT0wldxl9-3" value="&lt;font style=&quot;font-size: 14px&quot;&gt;作业模块&lt;/font&gt;" style="rounded=0;whiteSpace=wrap;html=1;" vertex="1" parent="1">
          <mxGeometry x="260" y="710" width="30" height="120" as="geometry" />
        </mxCell>
        <mxCell id="yi-cLOBVYIHPT0wldxl9-4" value="&lt;font style=&quot;font-size: 14px&quot;&gt;任务模块&lt;/font&gt;" style="rounded=0;whiteSpace=wrap;html=1;" vertex="1" parent="1">
          <mxGeometry x="310" y="710" width="30" height="120" as="geometry" />
        </mxCell>
        <mxCell id="yi-cLOBVYIHPT0wldxl9-5" value="&lt;font style=&quot;font-size: 14px&quot;&gt;教育模块&lt;/font&gt;" style="rounded=0;whiteSpace=wrap;html=1;" vertex="1" parent="1">
          <mxGeometry x="360" y="710" width="30" height="120" as="geometry" />
        </mxCell>
        <mxCell id="yi-cLOBVYIHPT0wldxl9-6" value="&lt;font style=&quot;font-size: 14px&quot;&gt;消息模块&lt;/font&gt;" style="rounded=0;whiteSpace=wrap;html=1;" vertex="1" parent="1">
          <mxGeometry x="410" y="710" width="30" height="120" as="geometry" />
        </mxCell>
        <mxCell id="yi-cLOBVYIHPT0wldxl9-7" value="&lt;font style=&quot;font-size: 14px&quot;&gt;日志模块&lt;/font&gt;" style="rounded=0;whiteSpace=wrap;html=1;" vertex="1" parent="1">
          <mxGeometry x="460" y="710" width="30" height="120" as="geometry" />
        </mxCell>
        <mxCell id="yi-cLOBVYIHPT0wldxl9-8" value="" style="endArrow=none;html=1;entryX=0.5;entryY=1;entryDx=0;entryDy=0;exitX=0.5;exitY=0;exitDx=0;exitDy=0;" edge="1" parent="1" source="yi-cLOBVYIHPT0wldxl9-2" target="yi-cLOBVYIHPT0wldxl9-1">
          <mxGeometry width="50" height="50" relative="1" as="geometry">
            <mxPoint x="360" y="810" as="sourcePoint" />
            <mxPoint x="410" y="760" as="targetPoint" />
          </mxGeometry>
        </mxCell>
        <mxCell id="yi-cLOBVYIHPT0wldxl9-9" value="" style="endArrow=none;html=1;exitX=0.5;exitY=0;exitDx=0;exitDy=0;" edge="1" parent="1" source="yi-cLOBVYIHPT0wldxl9-5">
          <mxGeometry width="50" height="50" relative="1" as="geometry">
            <mxPoint x="290" y="720" as="sourcePoint" />
            <mxPoint x="340" y="670" as="targetPoint" />
          </mxGeometry>
        </mxCell>
        <mxCell id="yi-cLOBVYIHPT0wldxl9-10" value="" style="endArrow=none;html=1;exitX=0.5;exitY=0;exitDx=0;exitDy=0;" edge="1" parent="1" source="yi-cLOBVYIHPT0wldxl9-4">
          <mxGeometry width="50" height="50" relative="1" as="geometry">
            <mxPoint x="290" y="720" as="sourcePoint" />
            <mxPoint x="340" y="670" as="targetPoint" />
          </mxGeometry>
        </mxCell>
        <mxCell id="yi-cLOBVYIHPT0wldxl9-11" value="" style="endArrow=none;html=1;entryX=0.5;entryY=1;entryDx=0;entryDy=0;exitX=0.5;exitY=0;exitDx=0;exitDy=0;" edge="1" parent="1" source="yi-cLOBVYIHPT0wldxl9-3" target="yi-cLOBVYIHPT0wldxl9-1">
          <mxGeometry width="50" height="50" relative="1" as="geometry">
            <mxPoint x="360" y="810" as="sourcePoint" />
            <mxPoint x="410" y="760" as="targetPoint" />
          </mxGeometry>
        </mxCell>
        <mxCell id="yi-cLOBVYIHPT0wldxl9-12" value="" style="endArrow=none;html=1;exitX=0.5;exitY=0;exitDx=0;exitDy=0;" edge="1" parent="1" source="yi-cLOBVYIHPT0wldxl9-7">
          <mxGeometry width="50" height="50" relative="1" as="geometry">
            <mxPoint x="350" y="790" as="sourcePoint" />
            <mxPoint x="340" y="670" as="targetPoint" />
          </mxGeometry>
        </mxCell>
        <mxCell id="yi-cLOBVYIHPT0wldxl9-13" value="" style="endArrow=none;html=1;entryX=0.5;entryY=1;entryDx=0;entryDy=0;exitX=0.5;exitY=0;exitDx=0;exitDy=0;" edge="1" parent="1" source="yi-cLOBVYIHPT0wldxl9-6" target="yi-cLOBVYIHPT0wldxl9-1">
          <mxGeometry width="50" height="50" relative="1" as="geometry">
            <mxPoint x="360" y="810" as="sourcePoint" />
            <mxPoint x="410" y="760" as="targetPoint" />
          </mxGeometry>
        </mxCell>
        <mxCell id="yi-cLOBVYIHPT0wldxl9-14" value="题目模块" style="rounded=0;whiteSpace=wrap;html=1;" vertex="1" parent="1">
          <mxGeometry x="100" y="890" width="30" height="60" as="geometry" />
        </mxCell>
        <mxCell id="yi-cLOBVYIHPT0wldxl9-15" value="试卷模块" style="rounded=0;whiteSpace=wrap;html=1;" vertex="1" parent="1">
          <mxGeometry x="40" y="880" width="30" height="60" as="geometry" />
        </mxCell>
        <mxCell id="yi-cLOBVYIHPT0wldxl9-16" value="" style="endArrow=none;html=1;exitX=0.5;exitY=0;exitDx=0;exitDy=0;" edge="1" parent="1" source="yi-cLOBVYIHPT0wldxl9-15">
          <mxGeometry width="50" height="50" relative="1" as="geometry">
            <mxPoint x="360" y="810" as="sourcePoint" />
            <mxPoint x="240" y="860" as="targetPoint" />
          </mxGeometry>
        </mxCell>
        <mxCell id="yi-cLOBVYIHPT0wldxl9-17" value="" style="endArrow=none;html=1;exitX=0.5;exitY=0;exitDx=0;exitDy=0;" edge="1" parent="1" source="yi-cLOBVYIHPT0wldxl9-14">
          <mxGeometry width="50" height="50" relative="1" as="geometry">
            <mxPoint x="290" y="850" as="sourcePoint" />
            <mxPoint x="240" y="860" as="targetPoint" />
          </mxGeometry>
        </mxCell>
        <mxCell id="yi-cLOBVYIHPT0wldxl9-18" value="学生端" style="rounded=0;whiteSpace=wrap;html=1;" vertex="1" parent="1">
          <mxGeometry x="530" y="630" width="100" height="40" as="geometry" />
        </mxCell>
        <mxCell id="yi-cLOBVYIHPT0wldxl9-19" value="&lt;font style=&quot;font-size: 14px&quot;&gt;成绩模块&lt;/font&gt;" style="rounded=0;whiteSpace=wrap;html=1;" vertex="1" parent="1">
          <mxGeometry x="565" y="720" width="30" height="90" as="geometry" />
        </mxCell>
        <mxCell id="yi-cLOBVYIHPT0wldxl9-20" value="&lt;font style=&quot;font-size: 14px&quot;&gt;作业模块&lt;/font&gt;" style="rounded=0;whiteSpace=wrap;html=1;" vertex="1" parent="1">
          <mxGeometry x="520" y="720" width="30" height="90" as="geometry" />
        </mxCell>
        <mxCell id="yi-cLOBVYIHPT0wldxl9-21" value="&lt;font style=&quot;font-size: 14px&quot;&gt;错题模块&lt;/font&gt;" style="rounded=0;whiteSpace=wrap;html=1;" vertex="1" parent="1">
          <mxGeometry x="610" y="720" width="30" height="90" as="geometry" />
        </mxCell>
        <mxCell id="yi-cLOBVYIHPT0wldxl9-22" value="" style="endArrow=none;html=1;entryX=0.5;entryY=1;entryDx=0;entryDy=0;exitX=0.5;exitY=0;exitDx=0;exitDy=0;" edge="1" parent="1" source="yi-cLOBVYIHPT0wldxl9-21" target="yi-cLOBVYIHPT0wldxl9-18">
          <mxGeometry width="50" height="50" relative="1" as="geometry">
            <mxPoint x="420" y="830" as="sourcePoint" />
            <mxPoint x="470" y="780" as="targetPoint" />
          </mxGeometry>
        </mxCell>
        <mxCell id="yi-cLOBVYIHPT0wldxl9-23" value="" style="endArrow=none;html=1;entryX=0.5;entryY=1;entryDx=0;entryDy=0;exitX=0.5;exitY=0;exitDx=0;exitDy=0;" edge="1" parent="1" source="yi-cLOBVYIHPT0wldxl9-19" target="yi-cLOBVYIHPT0wldxl9-18">
          <mxGeometry width="50" height="50" relative="1" as="geometry">
            <mxPoint x="580" y="710" as="sourcePoint" />
            <mxPoint x="470" y="780" as="targetPoint" />
          </mxGeometry>
        </mxCell>
        <mxCell id="yi-cLOBVYIHPT0wldxl9-24" value="" style="endArrow=none;html=1;entryX=0.5;entryY=1;entryDx=0;entryDy=0;exitX=0.5;exitY=0;exitDx=0;exitDy=0;" edge="1" parent="1" source="yi-cLOBVYIHPT0wldxl9-20" target="yi-cLOBVYIHPT0wldxl9-18">
          <mxGeometry width="50" height="50" relative="1" as="geometry">
            <mxPoint x="420" y="830" as="sourcePoint" />
            <mxPoint x="470" y="780" as="targetPoint" />
          </mxGeometry>
        </mxCell>
      </root>
    </mxGraphModel>
  </diagram>
</mxfile>
